<?xml version="1.0" encoding="utf-8"?>
<!-- Generator: Adobe Illustrator 23.0.4, SVG Export Plug-In . SVG Version: 6.00 Build 0)  -->
<svg version="1.1" id="Layer_1" xmlns="http://www.w3.org/2000/svg" xmlns:xlink="http://www.w3.org/1999/xlink" x="0px" y="0px"
	 viewBox="0 0 5.96 5.19" style="enable-background:new 0 0 5.96 5.19;" xml:space="preserve">
<style type="text/css">
	.st0{fill:#F7B7D2;}
	.st1{fill:#099B9B;}
	.st2{fill:#9BC944;}
	.st3{fill:#F0CB24;}
	.st4{fill:#FD3706;}
</style>
<title>latinerkvaret_logo</title>
<path class="st0" d="M0.46,3.61L0.46,3.61L0.6,3.58l0,0c0.05-0.07,0.14-0.12,0.23-0.13h0.06l0,0c0.02-0.07,0.08-0.07,0.14-0.09
	c0.03,0,0.05-0.02,0.07-0.03C0.91,2.69,0.97,2.1,1.5,1.63L1.45,1.53l0,0l0,0L1.38,1.51l0,0L1.36,1.48l0,0L1.32,1.43l0,0l0,0
	L1.31,1.39c-0.01,0-0.03,0-0.04,0c-0.03,0-0.06-0.03-0.06-0.07c0-0.01,0.01-0.03,0.01-0.04l0,0l0,0c-0.01,0-0.03,0-0.04,0
	c-0.01,0-0.02-0.01-0.03-0.02c0-0.02,0-0.03,0-0.05H1.12C1.09,1.21,1.07,1.2,1.05,1.18C1.04,1.17,1.03,1.16,1.03,1.15
	c0-0.01,0-0.03,0-0.04l0,0L1,1.04L0.97,1L0.81,0.91c-0.77,0.7-1.01,1.81-0.59,2.77L0.46,3.61L0.46,3.61z"/>
<path class="st1" d="M5.26,1.67C5.24,1.64,5.22,1.61,5.2,1.57C4.66,1.95,3.95,1.95,3.4,1.59c-0.2,0.22-0.38,0.46-0.53,0.71
	c0.03,0.02,0.06,0.06,0.1,0.08C3,2.42,3.12,2.47,3.19,2.51c0.23,0.13,0.49,0.21,0.75,0.23C4.27,2.78,4.59,2.76,4.9,2.69
	c0.26-0.07,0.5-0.18,0.73-0.31C5.72,2.34,5.72,2.3,5.66,2.22C5.53,2.03,5.39,1.84,5.26,1.67z"/>
<path class="st2" d="M2.72,4.95c0-0.14-0.02-0.29-0.03-0.43L2.67,4.46V4.38V4.33L2.43,4.3H2.35l0,0H2.25
	C1.79,4.21,1.39,3.93,1.17,3.52C1.12,3.45,1.08,3.4,0.99,3.45l0,0c-0.03,0-0.05,0-0.08,0l0,0l0,0C0.83,3.53,0.73,3.58,0.62,3.6H0.6
	L0.48,3.62l0,0L0.45,3.67L0.41,3.7C0.38,3.72,0.33,3.74,0.29,3.76C0.3,3.79,0.31,3.82,0.32,3.85c0.04,0.08,0.09,0.16,0.14,0.24
	c0.26,0.42,0.66,0.75,1.12,0.93c0.19,0.07,0.38,0.12,0.57,0.14C2.32,5.19,2.49,5.2,2.67,5.2c0.03,0,0.06-0.01,0.09-0.02l0,0l0,0
	c0-0.05,0-0.1-0.02-0.14V4.97L2.72,4.95z"/>
<path class="st3" d="M0.95,0.97L0.95,0.97l0.03,0.04l0.03,0.07c0.07,0,0.1,0.04,0.1,0.11h0.04l0.07,0.08l0,0l0,0l0.06,0.07l0,0
	L1.3,1.38l0,0c0.03,0,0.06,0.02,0.03,0.06l0.02,0.02c0.04-0.03,0.05,0,0.07,0.03l0,0v0.05c0.04,0.03,0.08,0,0.11-0.02
	c0.18-0.14,0.4-0.24,0.62-0.29c0.2-0.04,0.41-0.05,0.62-0.02C2.9,1.24,3.03,1.28,3.15,1.34c0.1,0.04,0.12,0.04,0.17-0.06
	c0.1-0.18,0.2-0.36,0.31-0.54C3.7,0.62,3.69,0.6,3.56,0.54L3.5,0.52C3.33,0.45,3.15,0.4,2.98,0.36C2.69,0.29,2.39,0.28,2.1,0.34
	C1.83,0.37,1.57,0.46,1.33,0.59C1.2,0.67,1.08,0.76,0.95,0.84L0.93,0.86C0.91,0.9,0.91,0.94,0.95,0.97z"/>
<path class="st4" d="M4.29,3.15L4.12,3.12c-0.06,0-0.08,0.02-0.1,0.07C3.97,3.31,3.92,3.43,3.86,3.54c-0.2,0.34-0.52,0.59-0.9,0.71
	C2.89,4.27,2.78,4.27,2.75,4.32C2.73,4.36,2.72,4.41,2.73,4.45c0,0.03,0,0.06,0,0.09l0,0v0.22l0,0c0,0.01,0,0.02,0,0.02
	C2.74,4.86,2.75,4.93,2.78,5C2.79,5.05,2.8,5.1,2.8,5.15C3.3,5.1,3.78,4.89,4.15,4.55c0.37-0.33,0.63-0.77,0.74-1.26L4.51,3.2
	L4.29,3.15z"/>
</svg>
