<svg id="Layer_1" data-name="Layer 1" xmlns="http://www.w3.org/2000/svg" xmlns:xlink="http://www.w3.org/1999/xlink" viewBox="0 0 119.23 12.82"><defs><style>.cls-1{fill:none;}.cls-2{fill:#f7b7d2;}.cls-3{fill:#099b9b;}.cls-4{fill:#9bc944;}.cls-5{fill:#f0cb24;}.cls-6{fill:#f7bed7;}.cls-7{fill:#fd3706;}.cls-8{fill:#f1ce2f;}.cls-9{fill:#fd4b21;}.cls-10{fill:#f1d13c;}.cls-11{fill:#fd4214;}.cls-12{fill:#f1d038;}.cls-13{fill:#fc4316;}.cls-14{fill:#a1cc4e;}.cls-15{fill:#19a1a1;}.cls-16{fill:#21a5a5;}.cls-17{fill:#17a1a1;}.cls-18{fill:#a8d05b;}.cls-19{fill:#1da3a3;}.cls-20{fill:#a2cd50;}.cls-21{fill:#109e9f;}.cls-22{fill:#f7b9d4;}.cls-23{fill:#fd471b;}.cls-24{fill:#fad9e8;}.cls-25{fill:#fff;}.cls-26{fill:#fffefa;}</style><symbol id="New_Symbol" data-name="New Symbol" viewBox="0 0 119.22 12.82"><path class="cls-1" d="M11.23,7.23v0c0,.32,0,.63,0,.94C11.24,7.86,11.23,7.55,11.23,7.23Z"/><path class="cls-1" d="M105.54,8.68l.33-.08-.33.08Z"/><path class="cls-1" d="M106.47,8.27a.83.83,0,0,0-.6.34h0A.83.83,0,0,1,106.47,8.27Z"/><path class="cls-1" d="M106.84,8.22a.71.71,0,0,1-.21,0h0A.71.71,0,0,0,106.84,8.22Z"/><path class="cls-1" d="M111.49,11.11h0Z"/><path class="cls-1" d="M110.66,10.48l-.22,0,.22,0Z"/><path class="cls-1" d="M105.55,8.67l-.63.21.63-.21-.07.11.07-.11Z"/><path class="cls-1" d="M111.36,11.05l0-.16,0,.16Z"/><path class="cls-1" d="M107.78,2.91l.07.15h0Z"/><polygon class="cls-1" points="107.85 3.06 107.85 3.06 107.85 3.06 107.85 3.06 107.85 3.06"/><path class="cls-1" d="M107.75,2.87l0,0h0Z"/><path class="cls-1" d="M107.06,2.24a.35.35,0,0,0,.18.1l.1,0-.1,0A.35.35,0,0,1,107.06,2.24Z"/><path class="cls-1" d="M106.91,1.87l.08.18h0Z"/><path class="cls-1" d="M107.6,2.75l.1,0h0Z"/><path class="cls-1" d="M107.43,2.55h0Z"/><path class="cls-1" d="M0,9.09H0Z"/><path class="cls-1" d="M111.51,11.69v0Z"/><path class="cls-1" d="M0,9.79C0,9.7,0,9.6,0,9.5,0,9.6,0,9.7,0,9.79Z"/><path class="cls-1" d="M111,10.47h0Z"/><path class="cls-1" d="M61.86,7.9h0Z"/><path class="cls-1" d="M111.51,12.76a.09.09,0,0,0,0,0l0-.37c0,.12,0,.25,0,.37A.09.09,0,0,1,111.51,12.76Z"/><path class="cls-1" d="M110.17,10.4l.24,0Z"/><path class="cls-1" d="M0,10.19A1.85,1.85,0,0,0,0,10,1.85,1.85,0,0,1,0,10.19Z"/><path class="cls-1" d="M111.44,12.17l0-.22,0,.22Z"/><path class="cls-1" d="M102.31,10.24v0Z"/><polygon class="cls-2" points="107.85 3.06 107.85 3.06 107.85 3.06 107.85 3.06"/><polygon class="cls-2" points="107.85 3.06 107.85 3.06 107.85 3.06 107.85 3.06 107.85 3.06"/><polygon class="cls-2" points="107.85 3.06 107.85 3.06 107.85 3.06 107.85 3.06"/><polygon class="cls-2" points="106.63 8.25 106.63 8.25 106.63 8.25 106.63 8.25"/><path class="cls-2" d="M105.54,8.68h0l.33-.08h0a.83.83,0,0,1,.6-.34l.16,0h0c.06-.17.21-.18.36-.22a.7.7,0,0,0,.2-.08,4.07,4.07,0,0,1,1.06-4.46l-.12-.27v0h0l-.18-.07h0l-.07-.07h0l-.07-.15h0l0,0,0-.1-.1,0a.17.17,0,0,1,0-.16v0h-.12a.13.13,0,0,1-.07-.06.31.31,0,0,1,0-.11l-.1,0a.35.35,0,0,1-.18-.1.22.22,0,0,1,0-.08.35.35,0,0,1,0-.11h0l-.08-.18-.09-.1-.34-.13a6.37,6.37,0,0,0-1.56,7.24l.63-.21Z"/><polygon class="cls-2" points="107.92 3.13 107.92 3.13 107.92 3.13 107.92 3.13 107.92 3.13"/><polygon class="cls-2" points="107.85 3.06 107.85 3.06 107.85 3.06 107.85 3.06 107.85 3.06"/><path class="cls-2" d="M106.82,1.77l-.34-.13.34.13Z"/><path class="cls-2" d="M106.63,8.25h0c.06-.17.21-.18.36-.22C106.84,8.07,106.69,8.08,106.63,8.25Z"/><path class="cls-3" d="M118.11,3.6a1.48,1.48,0,0,1-.16-.25,4.22,4.22,0,0,1-4.75,0,9.78,9.78,0,0,0-1.39,1.87,3,3,0,0,0,.26.21c.19.12.4.22.6.32a4.8,4.8,0,0,0,2,.6,7.27,7.27,0,0,0,2.5-.13,8,8,0,0,0,1.9-.81c.22-.12.24-.22.09-.43Z"/><path class="cls-4" d="M111.44,12.17c0-.37,0-.75-.08-1.12l0-.16,0-.21v-.12l-.62-.08-.22,0h0l-.24,0a4,4,0,0,1-2.84-2c-.12-.19-.24-.31-.47-.17h0a.71.71,0,0,1-.21,0h0a1.69,1.69,0,0,1-.76.37h0l-.33.08h0l-.07.11a.26.26,0,0,1-.09.09,2.27,2.27,0,0,1-.31.17,1,1,0,0,0,.07.23l.36.61a6.15,6.15,0,0,0,2.93,2.42,7.57,7.57,0,0,0,1.5.42,7.74,7.74,0,0,0,1.35.1.6.6,0,0,0,.22-.06l0,0v0c0-.12,0-.25,0-.37l0-.17Z"/><polygon class="cls-4" points="106.63 8.25 106.63 8.25 106.63 8.25 106.63 8.25"/><path class="cls-4" d="M111.46,12.34l0-.17h0Z"/><path class="cls-4" d="M111.31,10.89l0-.21v0Z"/><path class="cls-4" d="M110.41,10.44h0Z"/><polygon class="cls-4" points="105.55 8.67 105.55 8.67 105.54 8.68 105.54 8.68 105.55 8.67"/><polygon class="cls-4" points="105.87 8.61 105.87 8.61 105.87 8.6 105.87 8.61"/><polygon class="cls-5" points="107.7 2.77 107.7 2.77 107.7 2.77 107.7 2.77 107.7 2.77"/><path class="cls-5" d="M107.92,3.13h0l-.07-.07h0Z"/><path class="cls-5" d="M106.82,1.77h0l.09.1.08.18c.19,0,.26.11.25.29l.1,0,.19.18h0v0l.15.18h0l0,.1,0,0c.09,0,.15,0,.07.15l.07.07c.1-.08.14,0,.18.07h0v0c.11.08.2,0,.29-.05A4.17,4.17,0,0,1,110,2.42a4.52,4.52,0,0,1,1.64,0,4.91,4.91,0,0,1,1,.33c.27.1.31.09.45-.16l.8-1.4c.17-.31.15-.38-.18-.53l-.17-.06a10.69,10.69,0,0,0-1.36-.42,6,6,0,0,0-2.28-.06,5.89,5.89,0,0,0-2,.68c-.34.19-.66.43-1,.65l-.06.05A.21.21,0,0,0,106.82,1.77Z"/><path class="cls-5" d="M106.82,1.77a.21.21,0,0,1,0-.31.21.21,0,0,0,0,.31Z"/><polygon class="cls-5" points="107.92 3.13 107.92 3.13 107.92 3.13 107.92 3.13"/><path class="cls-5" d="M107.55,2.56h0Z"/><polygon class="cls-5" points="107.85 3.06 107.85 3.06 107.85 3.06 107.85 3.06"/><polygon class="cls-5" points="107.92 3.13 107.92 3.13 107.92 3.13 107.92 3.13"/><polygon class="cls-5" points="107.85 3.06 107.85 3.06 107.85 3.06 107.85 3.06 107.85 3.06"/><polygon class="cls-5" points="107.7 2.77 107.71 2.77 107.71 2.77 107.7 2.77 107.7 2.77"/><path class="cls-5" d="M107.85,3.06h0l.07.07h0Z"/><path class="cls-5" d="M107.7,2.77l0,.1,0-.1Z"/><polygon class="cls-5" points="107.85 3.06 107.85 3.06 107.85 3.06 107.85 3.06 107.85 3.06"/><path class="cls-6" d="M100.77,7.73a17.28,17.28,0,0,1-.26-2.15c0-.3-.13-.46-.36-.5s-.51,0-.59.34c-.15.58-.28,1.16-.41,1.73-.08.36-.14.73-.22,1.09a2.24,2.24,0,0,1-.14.34,1.88,1.88,0,0,1-.08-.2c-.14-.66-.29-1.33-.43-2,0-.15,0-.31-.07-.46s-.13-.45-.2-.67a.28.28,0,0,0-.28-.18c-.4,0-.48,0-.57.41a4.89,4.89,0,0,0-.09.53c0,.42,0,.83-.08,1.25,0,.08,0,.16,0,.24a6.77,6.77,0,0,0-.15,1,7,7,0,0,1-.14,1.2,4.17,4.17,0,0,0-.08.71.35.35,0,0,0,.08.22.45.45,0,0,0,.68-.25c.09-.6.15-1.21.23-1.81a5.48,5.48,0,0,1,.1-.56s.08-.08.14-.12l.06.12c.17.77.34,1.54.5,2.3.06.29.12.36.35.37a.51.51,0,0,0,.62-.45c0-.16,0-.33.07-.5.08-.42.16-.84.26-1.25.06-.25.15-.48.23-.73l.09,0A1.08,1.08,0,0,1,100,8c0,.48.09,1,.15,1.45,0,.33.1.66.14,1s.21.32.43.34.27-.13.28-.38v-.07C100.93,9.44,100.9,8.58,100.77,7.73Z"/><path class="cls-7" d="M115.56,7.46l-.46-.07c-.14,0-.21.05-.26.18a5.7,5.7,0,0,1-.4.91,4.1,4.1,0,0,1-2.37,1.85c-.18.07-.45.07-.54.2a.53.53,0,0,0,0,.34,2,2,0,0,1,0,.24h0l0,.58h0v.06a2.25,2.25,0,0,0,.12.56,1.23,1.23,0,0,1,.05.39,6.07,6.07,0,0,0,3.54-1.58,6.26,6.26,0,0,0,1.94-3.29l-1-.24Z"/><path class="cls-7" d="M111.63,12.31a2.25,2.25,0,0,1-.12-.56A2.25,2.25,0,0,0,111.63,12.31Z"/><polygon class="cls-7" points="111.51 11.69 111.51 11.69 111.51 11.69 111.51 11.69"/><path class="cls-7" d="M111.48,10.87a2,2,0,0,1,0,.24h0A2,2,0,0,0,111.48,10.87Z"/><path class="cls-6" d="M91.45,5.33c0-.29,0-.32-.35-.32s-.35,0-.36.3,0,.51,0,.76,0,.47,0,.71,0,.71,0,1.07a1.47,1.47,0,0,1-.08.35h-.08l-.48-1.1c-.25-.59-.49-1.19-.76-1.78A.61.61,0,0,0,88.69,5c-.21.06-.24.14-.25.49,0,.62,0,1.24-.07,1.86,0,.1,0,.21,0,.32a3,3,0,0,1,0,.42v2.23a.35.35,0,0,0,.39.4.42.42,0,0,0,.39-.4,2.62,2.62,0,0,0,0-.28V7.66l.08,0a3.66,3.66,0,0,1,.26.42l.72,1.71c.09.23.19.46.3.68a.57.57,0,0,0,.63.31c.19,0,.24-.15.24-.49V6.12C91.45,5.86,91.46,5.59,91.45,5.33Z"/><path class="cls-8" d="M36.52,9.5a17.06,17.06,0,0,0-.27-2.25.88.88,0,0,1,0-.28c0-.31,0-.63-.07-.93A4.13,4.13,0,0,0,36,5.41c-.06-.22-.26-.18-.42-.19s-.21.08-.24.21c-.08.37-.16.73-.23,1.09s-.19,1-.3,1.51c0,.22-.13.44-.2.65s-.08.1-.14.19a1.49,1.49,0,0,1-.11-.26c-.11-.51-.2-1-.3-1.51l-.27-1.23c0-.16-.09-.32-.14-.48s-.18-.19-.34-.17-.29,0-.31.22c-.07.47-.15.94-.21,1.42s-.05.76-.1,1.14c-.09.77-.21,1.54-.31,2.31a.18.18,0,0,0,.16.23c.24.06.36,0,.39-.27.1-.83.18-1.66.28-2.49a2.37,2.37,0,0,1,.09-.39.82.82,0,0,1,.37.53c0,.21.05.43.1.64.12.57.26,1.14.39,1.71,0,.15.08.27.26.28s.33,0,.41-.21A4.41,4.41,0,0,0,35,9.79c.11-.55.19-1.1.32-1.65a5.4,5.4,0,0,1,.29-.76h.1a2.62,2.62,0,0,1,.11.4c.07.57.13,1.14.2,1.71,0,.26,0,.52.06.78s.05.26.22.29.37-.06.36-.28S36.55,9.76,36.52,9.5Z"/><path class="cls-9" d="M62.5,7.9H61.17a.21.21,0,0,0-.23.22c0,.18,0,.36,0,.53a.24.24,0,0,0,.29.25,3.69,3.69,0,0,1,.47,0c.2,0,.26.15.19.33a1.09,1.09,0,0,1-1.14.54A1.43,1.43,0,0,1,60,9.26a2.41,2.41,0,0,1-.33-.71,2.07,2.07,0,0,1,.43-2.17,1,1,0,0,1,1.56-.09c.42.34.54.35.77-.15a.31.31,0,0,0,0-.28,1.89,1.89,0,0,0-1-.75,1.66,1.66,0,0,0-1.94.68,3.67,3.67,0,0,0-.61,2.45,3.77,3.77,0,0,0,.21.94,2,2,0,0,0,1.55,1.52,1.45,1.45,0,0,0,1.27-.33,2.87,2.87,0,0,0,.87-2.2C62.8,8,62.72,7.91,62.5,7.9Z"/><path class="cls-10" d="M40,5.28a1.24,1.24,0,0,0-1-.31,1.77,1.77,0,0,0-1.16.64,3.62,3.62,0,0,0-.74,2.06,3.25,3.25,0,0,0,1.06,2.77,1.31,1.31,0,0,0,1,.35,1.67,1.67,0,0,0,1.3-.72,3.46,3.46,0,0,0,.66-1.94A4.5,4.5,0,0,0,41,6.72,2.67,2.67,0,0,0,40,5.28Zm.22,3.6a1.26,1.26,0,0,1-1,.85,1,1,0,0,1-.92-.37,1.84,1.84,0,0,1-.49-1.49,2,2,0,0,1,.44-1.44,1,1,0,0,1,1.53-.12,1.93,1.93,0,0,1,.58,1.31A2.6,2.6,0,0,1,40.26,8.88Z"/><path class="cls-6" d="M71,7.89h-1.4a.22.22,0,0,0-.23.23v.75l.37,0a1.7,1.7,0,0,1,.39,0,.2.2,0,0,1,.15.3,1.06,1.06,0,0,1-1.1.51,1.34,1.34,0,0,1-.78-.59,2.1,2.1,0,0,1-.27-1.91,1.18,1.18,0,0,0,.07-.2A1.13,1.13,0,0,1,69,6.11a1,1,0,0,1,1.12.26c.29.32.45.3.67-.08l.06-.09a.3.3,0,0,0,0-.39A1.66,1.66,0,0,0,69.44,5,1.61,1.61,0,0,0,68,5.55a3.5,3.5,0,0,0-.79,2.14,4.2,4.2,0,0,0,.39,1.91,1.82,1.82,0,0,0,1.49,1.14,1.51,1.51,0,0,0,1.26-.38,3.25,3.25,0,0,0,.87-2.15A.28.28,0,0,0,71,7.89Z"/><path class="cls-11" d="M66.24,5.16c-.3-.07-.38,0-.39.32,0,.09,0,.17,0,.26,0,.75,0,1.5,0,2.26a.57.57,0,0,1-.16.51l-.14-.21c-.1-.24-.19-.48-.3-.73l-.9-2.1c-.11-.26-.27-.37-.52-.32s-.25.11-.25.44c0,.57,0,1.14,0,1.72,0,.92,0,1.84,0,2.76a.87.87,0,0,0,.06.32.27.27,0,0,0,.33.15c.13,0,.17-.11.18-.23a2.09,2.09,0,0,0,0-.25c0-.8,0-1.6,0-2.41,0-.15,0-.33.15-.46a.67.67,0,0,1,.11.14c.33.73.65,1.46,1,2.18.14.3.26.59.42.87a.48.48,0,0,0,.52.14c.15-.07.12-.22.13-.34a1.08,1.08,0,0,0,0-.18c0-1.41,0-2.83,0-4.24a1.57,1.57,0,0,0,0-.43A.29.29,0,0,0,66.24,5.16Z"/><path class="cls-12" d="M44.26,5.71a1.21,1.21,0,0,0-.61-.47,8.81,8.81,0,0,0-1.46-.1c-.21,0-.28.12-.28.34s0,.27,0,.4V8.17h0V10c0,.57.06.63.64.63.27,0,.55-.05.82,0a1.1,1.1,0,0,0,1-.62,2.85,2.85,0,0,0,.49-1.55q0-.55,0-1.11A2.68,2.68,0,0,0,44.26,5.71Zm-.11,3.11A1,1,0,0,1,43,9.69c-.32,0-.42-.13-.42-.45s0-.89,0-1.33h0V6.55c0-.39.15-.52.54-.48a1.19,1.19,0,0,1,1.07,1A3.7,3.7,0,0,1,44.15,8.82Z"/><path class="cls-13" d="M50.86,5.93c-.21-.33-.44-.68-.86-.74a12.26,12.26,0,0,0-1.36-.08c-.18,0-.26.09-.27.26a1.48,1.48,0,0,0,0,.21V7.81h0v2.33c0,.38.06.44.43.43s.65,0,1,0a1.17,1.17,0,0,0,1.06-.67,3.92,3.92,0,0,0,.46-2.7A3,3,0,0,0,50.86,5.93Zm-.38,3.13a1,1,0,0,1-.74.59c-.66.08-.75,0-.75-.6V6.54a.65.65,0,0,1,0-.14c0-.33.12-.42.46-.39a1.28,1.28,0,0,1,1.19,1.12c0,.26,0,.52.08.78A2.29,2.29,0,0,1,50.48,9.06Z"/><path class="cls-14" d="M26.44,5.15c-.18,0-.23.06-.24.28V8.05c0,.15,0,.31-.15.44a2.54,2.54,0,0,1-.48-.9c-.19-.47-.4-.93-.6-1.39-.13-.28-.25-.56-.39-.84a.4.4,0,0,0-.51-.23c-.22,0-.18.23-.18.38,0,1.48,0,3,0,4.45,0,.11,0,.22,0,.33s.11.22.26.22.3,0,.32-.22,0-.22,0-.32c0-.73,0-1.46,0-2.19a2.42,2.42,0,0,1,0-.47c0-.06.08-.12.12-.18s.08,0,.09.06c.42,1,.83,2,1.24,2.94.12.28.26.38.55.32s.21-.09.21-.42c0-1.22,0-2.44,0-3.66,0-.31,0-.62,0-.93A.27.27,0,0,0,26.44,5.15Z"/><path class="cls-6" d="M75.07,9.34c-.14-.47-.29-.93-.42-1.4s-.2-.83-.31-1.25-.24-.86-.36-1.3a.37.37,0,0,0-.38-.31.48.48,0,0,0-.54.38c-.17.59-.33,1.19-.49,1.79-.12.42-.2.85-.32,1.28a14,14,0,0,0-.46,1.72c0,.17,0,.31.14.39a.37.37,0,0,0,.43-.08,1,1,0,0,0,.25-.61c.06-.3.19-.42.48-.42H74c.3,0,.34,0,.43.32s.12.41.19.62a.28.28,0,0,0,.34.21c.25,0,.41-.12.37-.31C75.25,10,75.16,9.68,75.07,9.34Zm-1.5-.81h-.22c-.23,0-.33-.16-.27-.4s.13-.55.21-.82a.41.41,0,0,1,.35-.36c.12.37.24.72.33,1.07A.38.38,0,0,1,73.57,8.53Z"/><path class="cls-15" d="M1.41,8a.87.87,0,0,1,0-.77c.25-.5.52-1,.78-1.49a2,2,0,0,0,.16-.36.2.2,0,0,0-.15-.25.52.52,0,0,0-.64.23c-.22.38-.41.78-.62,1.17l-.19.26a2.61,2.61,0,0,1-.08-.44c0-.23,0-.46,0-.69,0-.56,0-.57-.55-.54a.15.15,0,0,0-.07,0c0,.26-.06,2.42,0,4H0c0,.14,0,.28,0,.41s0,.2,0,.29V10a1.85,1.85,0,0,1,0,.23c0,.09,0,.17,0,.24v.08a.89.89,0,0,1,0,.11H.21c.44,0,.46,0,.46-.47s0-.84,0-1.26A2.63,2.63,0,0,1,.74,8.5h.1a.47.47,0,0,1,.06.09c.26.56.51,1.13.78,1.69a.81.81,0,0,0,.18.26.63.63,0,0,0,.58,0c.16-.15.05-.3,0-.46Z"/><path class="cls-15" d="M0,9.5c0-.13,0-.27,0-.41C0,9.23,0,9.37,0,9.5Z"/><path class="cls-15" d="M.06,10.51v0Z"/><path class="cls-15" d="M0,10v0Z"/><path class="cls-15" d="M.05,5.13a.15.15,0,0,1,.07,0,.15.15,0,0,0-.07,0c0,.26-.06,2.42,0,4C0,7.55,0,5.39.05,5.13Z"/><path class="cls-16" d="M13.68,5.55a.75.75,0,0,0,0-.21c0-.18-.17-.25-.38-.24a.24.24,0,0,0-.25.25,2.55,2.55,0,0,0,0,.39c0,1,0,2,0,2.95a1.47,1.47,0,0,1-.18.76.42.42,0,0,1-.79,0,1.44,1.44,0,0,1-.15-.65c0-.75,0-1.5,0-2.26,0-.36,0-.72,0-1.07s-.17-.44-.47-.33-.19.19-.19.34V7.23c0,.32,0,.63,0,.94,0,.11,0,.21,0,.32a4.45,4.45,0,0,0,.2,1.41,1.19,1.19,0,0,0,1,.81,1.14,1.14,0,0,0,1-.74,4,4,0,0,0,.23-1.3Z"/><path class="cls-17" d="M16.88,10.09c-.19-.48-.38-1-.55-1.44a.67.67,0,0,1,.2-.84.66.66,0,0,0,.2-.33,2.21,2.21,0,0,0,0-1.71.79.79,0,0,0-.72-.6l-1,0a.23.23,0,0,0-.24.22,2.81,2.81,0,0,0,0,.29v4.42a2.09,2.09,0,0,0,0,.25c0,.21.07.25.31.25s.28-.05.31-.26a2.09,2.09,0,0,0,0-.25c0-.43,0-.86,0-1.29a.55.55,0,0,1,.19-.48c.12.32.23.6.33.88s.29.78.45,1.17a.41.41,0,0,0,.53.21c.15-.05.16-.18.06-.43ZM15.72,7.32c-.23,0-.36-.06-.38-.28a5.08,5.08,0,0,1,0-.78c0-.2.11-.25.32-.24a.62.62,0,0,1,.65.66A.61.61,0,0,1,15.72,7.32Z"/><path class="cls-18" d="M28.9,7.2a6.8,6.8,0,0,1-.48-.71.28.28,0,0,1,.07-.39.31.31,0,0,1,.42,0c.08.06.13.15.21.19a.25.25,0,0,0,.22,0,.63.63,0,0,0,.22-.8,2.11,2.11,0,0,0-.18-.27A.86.86,0,0,0,28,5.3a1.67,1.67,0,0,0-.07,1.92,10,10,0,0,0,.73,1,2.15,2.15,0,0,1,.48.86.42.42,0,0,1-.24.51c-.15.08-.32,0-.49-.12s-.07-.12-.11-.18c-.17-.24-.32-.27-.53-.07a1.59,1.59,0,0,0-.2.39,1.3,1.3,0,0,0,.7,1,.93.93,0,0,0,1.27-.26,1.92,1.92,0,0,0,.11-2.16A9.29,9.29,0,0,0,28.9,7.2Z"/><path class="cls-19" d="M5.57,5.3a.28.28,0,0,0-.21-.14.31.31,0,0,0-.24.12.43.43,0,0,0,0,.24c0,.28,0,.57,0,.86,0,.81,0,1.63,0,2.44a1.09,1.09,0,0,1-.37.9.3.3,0,0,1-.39,0A.76.76,0,0,1,3.91,9V5.52c0-.34-.05-.39-.4-.38l-.18,0c0,.12-.05.24-.05.37,0,1,0,1.92,0,2.87a4.17,4.17,0,0,0,.2,1.45,1,1,0,0,0,.83.74.85.85,0,0,0,.75-.15,1.44,1.44,0,0,0,.49-.86c0-.31.07-.62.08-.93,0-1,0-2,0-3A.83.83,0,0,0,5.57,5.3Z"/><path class="cls-9" d="M56.35,7.85c-.27-.33-.54-.66-.79-1s-.29-.62.17-.88l.39.34c.09.08.18.13.29.06a.52.52,0,0,0,.14-.73,1.51,1.51,0,0,0-.18-.26.88.88,0,0,0-1.25-.08,1.58,1.58,0,0,0-.35,1.51,4.63,4.63,0,0,0,.88,1.42,5.71,5.71,0,0,1,.51.77.5.5,0,0,1-.24.72c-.19.12-.42,0-.6-.23,0,0,0-.08-.07-.12a.25.25,0,0,0-.42-.07.51.51,0,0,0-.13.64,2,2,0,0,0,.26.39,1,1,0,0,0,1.59,0,1.8,1.8,0,0,0,.29-1.43A2.31,2.31,0,0,0,56.35,7.85Z"/><path class="cls-11" d="M53.12,8a3.62,3.62,0,0,0,.57,0A.4.4,0,0,0,54,7.83c.22-.36.05-.63-.36-.65h-.15c-.75,0-.81-.06-.75-.82V6.3c0-.24.14-.34.38-.34s.38,0,.57,0,.38-.15.39-.46-.07-.36-.35-.37H52.51c-.36,0-.39,0-.39.39,0,.76,0,1.53,0,2.3h0c0,.79,0,1.58,0,2.37,0,.31,0,.34.36.34h1.15c.31,0,.42-.1.42-.36s-.12-.47-.43-.48h-.54c-.24,0-.33-.06-.35-.3s0-.7,0-1S52.84,8,53.12,8Z"/><path class="cls-20" d="M19.47,10c-.31-.65-.61-1.31-.93-2a.94.94,0,0,1,0-.89c.25-.5.53-1,.79-1.49a3,3,0,0,0,.14-.42c-.45-.18-.55-.15-.74.22l-.21.42c-.17.31-.35.62-.54,1-.23-.12-.19-.28-.19-.41,0-.35,0-.7,0-1,0-.12-.06-.24-.22-.23s-.29,0-.31.23a2,2,0,0,0,0,.25c0,.52,0,1,0,1.58,0,1,0,1.91,0,2.87a.47.47,0,0,0,0,.24.34.34,0,0,0,.24.17.29.29,0,0,0,.22-.17.87.87,0,0,0,0-.36V8.66a.5.5,0,0,1,.14-.44.9.9,0,0,1,.1.12c.27.54.53,1.07.79,1.61.08.15.15.3.24.44a.38.38,0,0,0,.43.07c.16-.09.11-.22.06-.35Z"/><path class="cls-8" d="M47.52,9.78h-.77c-.37,0-.51-.13-.52-.49V8.5c0-.34.15-.48.48-.49h.86a4.19,4.19,0,0,0,0-.5c0-.22-.05-.26-.28-.26h-.69c-.25,0-.34-.1-.37-.35a2.12,2.12,0,0,1,0-.5c0-.3.17-.42.47-.41h.61c.18,0,.26-.09.28-.26s0-.14,0-.21c0-.27,0-.32-.31-.32H46.12c-.38,0-.43.08-.43.46,0,1,0,1.93,0,2.9,0,.53,0,1.06,0,1.58,0,.33.09.41.4.41h1c.51,0,.57-.07.5-.56A.83.83,0,0,0,47.52,9.78Z"/><path class="cls-4" d="M23,5.29a.4.4,0,0,0-.48-.41c-.25,0-.32.11-.34.41v3.2a1.4,1.4,0,0,1-.19.82.38.38,0,0,1-.43.17c-.18,0-.23-.18-.25-.32a4.56,4.56,0,0,1,0-.64c0-1,0-2.09,0-3.13,0-.34-.17-.5-.48-.5s-.42.19-.42.51c0,.59,0,1.17,0,1.76h0V8.27a6.85,6.85,0,0,0,.12,1.35,1.53,1.53,0,0,0,.94,1.17.58.58,0,0,0,.48,0,1.55,1.55,0,0,0,1-1.47C23,8.61,23,7.9,23,7.18c0-.32,0-.64,0-1S23,5.6,23,5.29Zm-.33,4.08a.73.73,0,0,0-.06.21c0,.09,0,.18-.07.27a.9.9,0,0,1-1.44.33,1.56,1.56,0,0,1-.44-1.1V5.56c0-.12,0-.31.15-.31s.15.19.15.31c0,1,0,2.09,0,3.13a1.81,1.81,0,0,0,.25.92.87.87,0,0,0,.4.33A.38.38,0,0,0,22,9.81,1,1,0,0,0,22.31,9c0-.59,0-1.19,0-1.79s0-1,0-1.53a.83.83,0,0,1,0-.28.26.26,0,0,1,.29-.17.2.2,0,0,1,.18.23V8.72A1.14,1.14,0,0,1,22.66,9.37Z"/><path class="cls-21" d="M10.36,5.15c-.45,0-.89,0-1.33,0s-.39.06-.38.4v.14c0,.25.07.28.34.31s.31.09.35.32a2.18,2.18,0,0,1,0,.25c0,.48,0,1,0,1.44,0,.75,0,1.51,0,2.26,0,.24.06.29.3.29s.3,0,.31-.28A2.08,2.08,0,0,0,10,10c0-1.15,0-2.3,0-3.45C10,6,10,6,10.62,6c0-.19,0-.37,0-.54S10.6,5.15,10.36,5.15Z"/><path class="cls-22" d="M82.81,8.79A.7.7,0,0,1,82.9,8a2.57,2.57,0,0,0,.43-1.45,1.55,1.55,0,0,0-.06-.31c0-.19-.1-.37-.16-.55s-.22-.59-.54-.66a7.61,7.61,0,0,0-1.27-.17.38.38,0,0,0-.46.34,2.42,2.42,0,0,0-.09.6c0,.39,0,.78.06,1.17s-.06.52-.06.78c0,.83,0,1.65,0,2.48,0,.35.19.65.42.64.46,0,.58-.14.58-.65V9.44a1.81,1.81,0,0,1,0-.23h.09c.15.37.32.73.44,1.11a.9.9,0,0,0,.23.39.54.54,0,0,0,.67.12.67.67,0,0,0,.15-.72C83.17,9.67,83,9.23,82.81,8.79ZM83,10.48a.21.21,0,0,1-.32,0,1.13,1.13,0,0,1-.24-.3c-.12-.29-.2-.58-.3-.87s-.2-.58-.31-.86c0,0-.06-.07-.09-.1a.52.52,0,0,0-.29.55,6.77,6.77,0,0,1,0,.78c0,.2,0,.4,0,.61s0,.26-.22.26-.22-.12-.22-.26V5.47c0-.18.1-.25.28-.25h.75A1.12,1.12,0,0,1,83,6a2.91,2.91,0,0,1,0,1.1,1.31,1.31,0,0,1-.42.83.68.68,0,0,0-.08.71,7.59,7.59,0,0,0,.3.84c.09.24.2.46.27.7A.36.36,0,0,1,83,10.48Z"/><path class="cls-22" d="M77.46,7.65c-.26-.3-.52-.61-.77-.93-.11-.14-.2-.31,0-.47.28,0,.38.27.61.4.3-.1.39-.36.54-.57a.25.25,0,0,0,0-.17l-.21-.53c-.1-.26-.38-.31-.56-.48a.42.42,0,0,0-.46-.1c-.37.17-.76.33-.84.81a.68.68,0,0,1-.07.2,1.21,1.21,0,0,0-.07,1,4,4,0,0,0,.83,1.44A8,8,0,0,1,77,9a.3.3,0,0,1,0,.42.47.47,0,0,1-.47-.05c-.08-.08-.14-.19-.22-.28A.3.3,0,0,0,75.92,9a.57.57,0,0,0-.35.46,1.27,1.27,0,0,0,.63,1.3,1.32,1.32,0,0,0,.52.22,1.08,1.08,0,0,0,1-.6A2.21,2.21,0,0,0,78,9,2.12,2.12,0,0,0,77.46,7.65Zm.31,2c-.13.22-.15.49-.35.69a.43.43,0,0,1-.33.18,2.38,2.38,0,0,1-.45.05,1.16,1.16,0,0,1-.91-.82.35.35,0,0,1,.21-.41c.16-.09.23,0,.32.12a3.82,3.82,0,0,0,.36.34.32.32,0,0,0,.48-.07.87.87,0,0,0,0-1.06c-.33-.42-.66-.83-1-1.26a1.64,1.64,0,0,1-.3-.83,4.86,4.86,0,0,1,0-.54,1,1,0,0,1,.66-.88,1,1,0,0,1,1,.54c.07.21,0,.36-.3.58L77.06,6c-.16-.18-.34-.22-.5-.1a.52.52,0,0,0-.23.58,3.79,3.79,0,0,0,.81,1.16,3.19,3.19,0,0,1,.68,1.2A1,1,0,0,1,77.77,9.67Z"/><path class="cls-22" d="M95.91,6.11s0-.07,0-.1a1.66,1.66,0,0,0-1-1,.58.58,0,0,1-.18-.11.87.87,0,0,0-1,0,.67.67,0,0,1-.18.11,2,2,0,0,0-1,.95,4.67,4.67,0,0,0-.28.76A3.55,3.55,0,0,0,92,7.83a5.39,5.39,0,0,0,.13,1,9.85,9.85,0,0,0,.36,1A2.34,2.34,0,0,0,94,11a.85.85,0,0,0,.42,0,2.13,2.13,0,0,0,1.34-.95,3.72,3.72,0,0,0,.55-1.75,2.56,2.56,0,0,0,0-.6A4.83,4.83,0,0,0,95.91,6.11ZM96,8.68A5.2,5.2,0,0,1,95.42,10a1.42,1.42,0,0,1-1.53.6,1.73,1.73,0,0,1-1.17-1,3.48,3.48,0,0,1-.4-1.85,3.24,3.24,0,0,1,.61-1.94,1.46,1.46,0,0,1,1.83-.56,1,1,0,0,1,.38.26,2.13,2.13,0,0,1,.63.85,5.58,5.58,0,0,1,.27.88,4.31,4.31,0,0,1,0,.72h0A2.4,2.4,0,0,1,96,8.68Z"/><path class="cls-4" d="M31.88,5.16c-.43,0-.86,0-1.28,0s-.43.1-.39.41c0,.1,0,.21.05.33.52,0,.62.06.63.53V10.1c0,.31.05.34.36.37l.18,0a1.18,1.18,0,0,0,0-.25c0-.94,0-1.87,0-2.8,0-.36,0-.72,0-1.08s.1-.38.34-.42.34-.07.35-.4c0-.11,0-.21,0-.32Z"/><path class="cls-22" d="M87.29,5.82A1.37,1.37,0,0,0,86.42,5a.72.72,0,0,1-.25-.12.83.83,0,0,0-.82,0,1.85,1.85,0,0,1-.29.13,1.39,1.39,0,0,0-.78.66,3.43,3.43,0,0,0-.59,2.07c0,.31,0,.62,0,.93a2.11,2.11,0,0,0,0,.25,4.81,4.81,0,0,0,.67,1.34,1.2,1.2,0,0,0,.67.5.56.56,0,0,1,.19.09.78.78,0,0,0,.69.12,2,2,0,0,0,1.36-1A2.9,2.9,0,0,0,87.77,8,3.36,3.36,0,0,0,87.29,5.82ZM87,10a1.43,1.43,0,0,1-1.93.47,2,2,0,0,1-1-1.35,3.27,3.27,0,0,0-.1-.45,2.34,2.34,0,0,1,0-1.48c.09-.36.23-.72.35-1.07a.75.75,0,0,1,.15-.2,2.79,2.79,0,0,0,.38-.39c.2-.3.53-.28.83-.33a1.13,1.13,0,0,1,.82.16,2.25,2.25,0,0,1,.52.5,2,2,0,0,1,.46.95,2.29,2.29,0,0,0,.08.28c.06.25.11.5.17.76A4.06,4.06,0,0,1,87,10Z"/><path class="cls-23" d="M58.11,5.44c0-.1-.08-.24-.14-.25a.47.47,0,0,0-.37.06c-.07,0-.09.21-.09.32,0,1.5,0,3,0,4.49a1.12,1.12,0,0,0,0,.32.3.3,0,0,0,.36.22c.18,0,.21-.14.22-.28V7.88h0v-2A2.36,2.36,0,0,0,58.11,5.44Z"/><path class="cls-21" d="M8.4,9.79a.24.24,0,0,0-.25-.21H7.71a.25.25,0,0,1-.27-.23c0-.11,0-.22,0-.32V5.44C7.41,5.15,7.28,5,7,5s-.3.12-.32.39V7.83h0v2c0,.15,0,.31,0,.46s.11.36.39.36H8c.41,0,.51-.11.49-.51C8.43,10,8.42,9.91,8.4,9.79Zm-.14.56a.21.21,0,0,1-.16.11H6.88a3,3,0,0,1-.06-.78c0-.5,0-1,0-1.5a2.81,2.81,0,0,1,0-.29c0-.14,0-.28,0-.42V5.58c0-.13,0-.32.16-.33s.2.17.23.33a7.72,7.72,0,0,1,0,1.52c0,.64,0,1.27,0,1.91a1.51,1.51,0,0,0,.06.35c.09.38.18.45.56.46h.1A.34.34,0,0,1,8.26,10.35Z"/><path class="cls-22" d="M80,5.08h-1.4c-.26,0-.37.1-.4.36,0,.1,0,.21,0,.32a.42.42,0,0,0,.36.39c.33.08.36.11.36.45v3.7a.34.34,0,0,0,.22.37.39.39,0,0,0,.47-.16.75.75,0,0,0,.09-.37c0-1,0-1.93,0-2.9,0-.24,0-.48,0-.72A.35.35,0,0,1,80,6.15a.53.53,0,0,0,.39-.78C80.3,5.09,80.3,5.08,80,5.08Zm0,.8a.7.7,0,0,0-.52.78c0,1.13,0,2.27,0,3.41a1,1,0,0,1,0,.25c0,.07-.08.18-.13.19a.3.3,0,0,1-.23-.11.73.73,0,0,1-.07-.3V8.27c0-.59,0-1.17,0-1.76a.52.52,0,0,0-.4-.59.33.33,0,0,1-.26-.26c0-.33,0-.44.38-.44H79.9c.25,0,.34.12.34.36A.27.27,0,0,1,80,5.88Z"/><path class="cls-22" d="M79,6.6v0Z"/><path class="cls-22" d="M102.3,5.43c0-.26-.16-.37-.4-.35s-.32.12-.3.39a5.71,5.71,0,0,0,0,1.6,1.15,1.15,0,0,1,0,.18c0,.16,0,.33-.06.49V10a1.38,1.38,0,0,0,0,.29.41.41,0,0,0,.43.39c.25,0,.35-.14.35-.44V5.68A2.09,2.09,0,0,0,102.3,5.43Zm-.14,4.67c0,.31,0,.31-.36.43a2.33,2.33,0,0,1-.06-.33c0-1.55,0-3.09,0-4.64,0-.14,0-.31.19-.33s.24.14.24.34,0,.55,0,.83C102.17,7.63,102.17,8.86,102.16,10.1Z"/><polygon class="cls-2" points="111.51 11.69 111.51 11.69 111.51 11.69 111.51 11.69"/><path class="cls-2" d="M111.49,11.11h0l-.12-.06h0c0,.37.06.75.08,1.12l0-.22,0-.26Z"/><path class="cls-2" d="M111.48,11.11l-.12-.06h0Z"/><path class="cls-2" d="M111.51,11.69l0,.26,0-.26Z"/><path class="cls-2" d="M111.44,12.17c0-.37,0-.75-.08-1.12,0,.37.06.75.08,1.12Z"/><path class="cls-2" d="M111.28,10.56c-.06,0-.11-.09-.17-.09h-.45Z"/><path class="cls-2" d="M111,10.47h0Z"/><path class="cls-24" d="M111.49,12.74l0,0a.09.09,0,0,0,0,0Z"/><path class="cls-25" d="M105.87,8.61a1.69,1.69,0,0,0,.76-.37l-.16,0A.83.83,0,0,0,105.87,8.61Z"/><path class="cls-25" d="M107,2.05h0a.35.35,0,0,0,0,.11.22.22,0,0,0,0,.08.35.35,0,0,0,.18.1C107.25,2.16,107.18,2.05,107,2.05Z"/><path class="cls-25" d="M107.06,2.24a.22.22,0,0,1,0-.08A.22.22,0,0,0,107.06,2.24Z"/><polygon class="cls-25" points="106.99 2.06 106.98 2.05 106.99 2.06 106.99 2.06"/><polygon class="cls-25" points="106.99 2.06 106.98 2.05 106.98 2.05 106.99 2.06 106.99 2.06"/><polygon class="cls-25" points="106.98 2.05 106.98 2.05 106.99 2.06 106.98 2.05"/><path class="cls-25" d="M107.7,2.77h0l-.15-.18a.17.17,0,0,0,0,.16l.1,0Z"/><polygon class="cls-25" points="107.7 2.77 107.7 2.77 107.7 2.77 107.7 2.77"/><polygon class="cls-25" points="107.71 2.77 107.71 2.77 107.7 2.77 107.71 2.77"/><polygon class="cls-25" points="107.7 2.77 107.7 2.77 107.7 2.77 107.7 2.77 107.7 2.77"/><polygon class="cls-25" points="107.7 2.77 107.7 2.77 107.71 2.77 107.7 2.77 107.7 2.77"/><path class="cls-25" d="M107.53,2.56l-.19-.18a.31.31,0,0,0,0,.11.13.13,0,0,0,.07.06Z"/><path class="cls-25" d="M107.36,2.49a.13.13,0,0,0,.07.06A.13.13,0,0,1,107.36,2.49Z"/><polygon class="cls-25" points="107.92 3.13 107.92 3.13 107.92 3.13 107.92 3.13 107.92 3.13"/><path class="cls-25" d="M107.92,3.13h0l.18.07C108.06,3.13,108,3.05,107.92,3.13Z"/><polygon class="cls-25" points="107.92 3.13 107.92 3.13 107.92 3.13 107.92 3.13 107.92 3.13"/><polygon class="cls-25" points="107.92 3.13 107.92 3.13 107.92 3.13 107.92 3.13"/><polygon class="cls-25" points="107.85 3.06 107.85 3.06 107.85 3.06 107.85 3.06 107.85 3.06"/><path class="cls-25" d="M107.85,3.06c.08-.1,0-.13-.07-.15h0l.07.15Z"/><polygon class="cls-25" points="107.85 3.06 107.85 3.06 107.85 3.06 107.85 3.06 107.85 3.06"/><polygon class="cls-25" points="107.78 2.92 107.78 2.92 107.78 2.92 107.78 2.92"/><polygon class="cls-25" points="107.78 2.92 107.78 2.92 107.78 2.92 107.78 2.92 107.78 2.92"/><polygon class="cls-25" points="107.78 2.92 107.78 2.92 107.78 2.92 107.78 2.92"/><polygon class="cls-25" points="107.85 3.06 107.85 3.06 107.85 3.06 107.85 3.06"/><path class="cls-26" d="M15.66,6c-.21,0-.3,0-.32.24a5.08,5.08,0,0,0,0,.78c0,.22.15.3.38.28a.61.61,0,0,0,.59-.64A.62.62,0,0,0,15.66,6Z"/><path class="cls-4" d="M22.81,5.67V5.45a.2.2,0,0,0-.18-.23.26.26,0,0,0-.29.17.83.83,0,0,0,0,.28c0,.51,0,1,0,1.53s0,1.2,0,1.79a1,1,0,0,1-.28.82.38.38,0,0,1-.44.13.87.87,0,0,1-.4-.33,1.81,1.81,0,0,1-.25-.92c0-1,0-2.09,0-3.13,0-.12,0-.31-.15-.31s-.15.19-.15.31V9.08a1.56,1.56,0,0,0,.44,1.1.9.9,0,0,0,1.44-.33c0-.09,0-.18.07-.27a.73.73,0,0,1,.06-.21,1.14,1.14,0,0,0,.15-.65Z"/><path class="cls-4" d="M20.65,7.32v0Z"/><path class="cls-22" d="M82.81,9.49a7.59,7.59,0,0,1-.3-.84.68.68,0,0,1,.08-.71A1.31,1.31,0,0,0,83,7.11,2.91,2.91,0,0,0,83,6a1.12,1.12,0,0,0-.91-.79h-.75c-.18,0-.28.07-.28.25v4.8c0,.14,0,.26.22.26s.21-.11.22-.26,0-.41,0-.61a6.77,6.77,0,0,0,0-.78.52.52,0,0,1,.29-.55s.08.06.09.1c.11.28.21.57.31.86s.18.58.3.87a1.13,1.13,0,0,0,.24.3.21.21,0,0,0,.32,0,.36.36,0,0,0,0-.29C83,10,82.9,9.73,82.81,9.49Zm-.57-2.14c-.5.21-.75,0-.77-.5a2.06,2.06,0,0,1,0-.43A.53.53,0,0,1,82,5.94a.58.58,0,0,1,.58.55v.39A.42.42,0,0,1,82.24,7.35Z"/><path class="cls-22" d="M77.14,7.67a3.79,3.79,0,0,1-.81-1.16.52.52,0,0,1,.23-.58c.16-.12.34-.08.5.1l.21.27c.3-.22.37-.37.3-.58a1,1,0,0,0-1-.54,1,1,0,0,0-.66.88,4.86,4.86,0,0,0,0,.54,1.64,1.64,0,0,0,.3.83c.32.43.65.84,1,1.26a.87.87,0,0,1,0,1.06.32.32,0,0,1-.48.07,3.82,3.82,0,0,1-.36-.34c-.09-.09-.16-.21-.32-.12a.35.35,0,0,0-.21.41,1.16,1.16,0,0,0,.91.82,2.38,2.38,0,0,0,.45-.05.43.43,0,0,0,.33-.18c.2-.2.22-.47.35-.69a1,1,0,0,0,0-.8A3.19,3.19,0,0,0,77.14,7.67Z"/><path class="cls-22" d="M96.05,8a4.31,4.31,0,0,0,0-.72,5.58,5.58,0,0,0-.27-.88,2.13,2.13,0,0,0-.63-.85,1,1,0,0,0-.38-.26,1.46,1.46,0,0,0-1.83.56,3.24,3.24,0,0,0-.61,1.94,3.48,3.48,0,0,0,.4,1.85,1.73,1.73,0,0,0,1.17,1,1.42,1.42,0,0,0,1.53-.6A5.2,5.2,0,0,0,96,8.68,2.4,2.4,0,0,0,96,8Zm-.53.36a3.05,3.05,0,0,1-.32.89,1.36,1.36,0,0,1-.81.7.78.78,0,0,1-.55-.08A1.66,1.66,0,0,1,93,9a2.09,2.09,0,0,1-.17-1.11,2.12,2.12,0,0,1,.29-1.33,1.22,1.22,0,0,1,1.21-.63,1.31,1.31,0,0,1,.7.42A2.75,2.75,0,0,1,95.52,8.33Z"/><path class="cls-22" d="M87.44,6.77A2,2,0,0,0,87,5.82a2.25,2.25,0,0,0-.52-.5,1.13,1.13,0,0,0-.82-.16c-.3,0-.63,0-.83.33a2.79,2.79,0,0,1-.38.39.75.75,0,0,0-.15.2c-.12.35-.26.71-.35,1.07a2.34,2.34,0,0,0,0,1.48,3.27,3.27,0,0,1,.1.45,2,2,0,0,0,1,1.35A1.43,1.43,0,0,0,87,10a4.06,4.06,0,0,0,.72-2.15c-.06-.26-.11-.51-.17-.76A2.29,2.29,0,0,1,87.44,6.77Zm-.38,1.64a1.7,1.7,0,0,1-.52,1.1c-.26.21-.53.49-.92.37a1.52,1.52,0,0,1-1-.76,3.2,3.2,0,0,1-.17-2,1.57,1.57,0,0,1,1-1.2.86.86,0,0,1,.59,0,1.55,1.55,0,0,1,.84.83,2.32,2.32,0,0,1,.21,1.18A2.08,2.08,0,0,1,87.06,8.41Z"/><path class="cls-21" d="M7.94,9.82h-.1c-.38,0-.47-.08-.56-.46A1.51,1.51,0,0,1,7.22,9c0-.64,0-1.27,0-1.91a7.72,7.72,0,0,0,0-1.52c0-.16,0-.34-.23-.33s-.16.2-.16.33v1.9c0,.14,0,.28,0,.42a2.81,2.81,0,0,0,0,.29c0,.5.06,1,0,1.5a3,3,0,0,0,.06.78H8.1a.21.21,0,0,0,.16-.11A.34.34,0,0,0,7.94,9.82Z"/><path class="cls-22" d="M79.9,5.22H78.82c-.34,0-.42.11-.38.44a.33.33,0,0,0,.26.26.52.52,0,0,1,.4.59c0,.59,0,1.17,0,1.76V10.1a.73.73,0,0,0,.07.3.3.3,0,0,0,.23.11s.11-.12.13-.19a1,1,0,0,0,0-.25c0-1.14,0-2.28,0-3.41A.7.7,0,0,1,80,5.88a.27.27,0,0,0,.2-.3C80.24,5.34,80.15,5.23,79.9,5.22Z"/><path class="cls-22" d="M79.09,8.27c0-.59,0-1.17,0-1.76,0,.59,0,1.17,0,1.76v0Z"/><path class="cls-22" d="M102.16,5.57c0-.2-.11-.35-.24-.34s-.19.19-.19.33c0,1.55,0,3.09,0,4.64a2.33,2.33,0,0,0,.06.33c.36-.12.36-.12.36-.43,0-1.24,0-2.47,0-3.7C102.17,6.12,102.17,5.85,102.16,5.57Z"/><path class="cls-22" d="M94.34,5.89a1.22,1.22,0,0,0-1.21.63,2.12,2.12,0,0,0-.29,1.33A2.09,2.09,0,0,0,93,9a1.66,1.66,0,0,0,.83.88.78.78,0,0,0,.55.08,1.36,1.36,0,0,0,.81-.7,3.05,3.05,0,0,0,.32-.89,2.75,2.75,0,0,0-.48-2A1.31,1.31,0,0,0,94.34,5.89Zm.83,2.94a2,2,0,0,1-.44.55.36.36,0,0,1-.2.08c-.07,0-.14,0-.21,0a1,1,0,0,1-1.12-.62,1.59,1.59,0,0,1-.14-.58,1.92,1.92,0,0,1,.51-1.81,1,1,0,0,1,1.24,0,1.76,1.76,0,0,1,.53,1.48A1.85,1.85,0,0,1,95.17,8.83Z"/><path class="cls-22" d="M86.86,6.73A1.55,1.55,0,0,0,86,5.9a.86.86,0,0,0-.59,0,1.57,1.57,0,0,0-1,1.2,3.2,3.2,0,0,0,.17,2,1.52,1.52,0,0,0,1,.76c.39.12.66-.16.92-.37a1.7,1.7,0,0,0,.52-1.1,2.08,2.08,0,0,0,0-.5A2.32,2.32,0,0,0,86.86,6.73Zm0,1.5a1.78,1.78,0,0,1-.6,1.1A.94.94,0,0,1,85,9.22a2.13,2.13,0,0,1-.5-1.33,2.64,2.64,0,0,1,.4-1.28,1.09,1.09,0,0,1,1.19-.34c.29.11.42.4.57.65a1.92,1.92,0,0,1,.14.36A1.63,1.63,0,0,1,86.91,8.23Z"/></symbol></defs><title>logo</title><use width="119.23" height="12.82" xlink:href="#New_Symbol"/></svg>